name C:\Users\u0101727\Documents\MyRepositories\upper-imu-dc\Results\main_tracking\Case_32\ABD01_linearAccelerations_groundFrame.mot
datacolumns 4
datarows 141
range 2.81000000 4.21000000
endheader 
time	radius_imu_x	radius_imu_y	radius_imu_z	
          2.81000000	          0.19084140	         11.07090619	          3.80121097	
          2.82000000	          0.37522007	         10.45793472	          2.10407411	
          2.83000000	          0.47696653	         10.11686763	          0.92168343	
          2.84000000	          0.53931139	          9.91023922	          0.11339203	
          2.85000000	          0.56611641	          9.79599435	         -0.39798982	
          2.86000000	          0.55783311	          9.74465877	         -0.67562802	
          2.87000000	          0.51300749	          9.73463812	         -0.77142208	
          2.88000000	          0.43159811	          9.74960672	         -0.73132942	
          2.89000000	          0.31746488	          9.77702635	         -0.59811393	
          2.90000000	          0.18027096	          9.80720673	         -0.41347203	
          2.91000000	          0.03556909	          9.83290231	         -0.21828401	
          2.92000000	         -0.09821477	          9.84892598	         -0.04899251	
          2.93000000	         -0.20611967	          9.85176090	          0.07044972	
          2.94000000	         -0.28298588	          9.83968882	          0.13636690	
          2.95000000	         -0.33364256	          9.81339854	          0.16433114	
          2.96000000	         -0.36530228	          9.77662645	          0.17729212	
          2.97000000	         -0.37962929	          9.73637996	          0.19310949	
          2.98000000	         -0.37306521	          9.70220824	          0.22250902	
          2.99000000	         -0.34324296	          9.68431538	          0.27452838	
          3.00000000	         -0.29243470	          9.69114839	          0.35858874	
          3.01000000	         -0.22570459	          9.72740786	          0.48103039	
          3.02000000	         -0.14828878	          9.79306134	          0.64197739	
          3.03000000	         -0.06481810	          9.88357116	          0.83552485	
          3.04000000	          0.02017536	          9.99106449	          1.05185941	
          3.05000000	          0.10170301	         10.10611185	          1.27924393	
          3.06000000	          0.17473800	         10.21981519	          1.50490320	
          3.07000000	          0.23547537	         10.32550605	          1.71528932	
          3.08000000	          0.28205080	         10.41914048	          1.89707630	
          3.09000000	          0.31349601	         10.49838742	          2.03975438	
          3.10000000	          0.32748764	         10.56144906	          2.13891045	
          3.11000000	          0.31907806	         10.60661149	          2.19768561	
          3.12000000	          0.28174892	         10.63266923	          2.22490060	
          3.13000000	          0.21001392	         10.63966427	          2.23093097	
          3.14000000	          0.10201311	         10.62931454	          2.22359275	
          3.15000000	         -0.03890032	         10.60487730	          2.20565637	
          3.16000000	         -0.20385542	         10.57060970	          2.17434590	
          3.17000000	         -0.37939613	         10.53105806	          2.12244186	
          3.18000000	         -0.54938699	         10.49030175	          2.04058163	
          3.19000000	         -0.69745199	         10.45127539	          1.92036957	
          3.20000000	         -0.80943939	         10.41538447	          1.75738448	
          3.21000000	         -0.87535046	         10.38260380	          1.55284459	
          3.22000000	         -0.89038725	         10.35190177	          1.31364926	
          3.23000000	         -0.85513608	         10.32169030	          1.05170469	
          3.24000000	         -0.77487474	         10.29035627	          0.78308993	
          3.25000000	         -0.65773395	         10.25721675	          0.52636271	
          3.26000000	         -0.51189406	         10.22382745	          0.29943024	
          3.27000000	         -0.34311745	         10.19473040	          0.11621273	
          3.28000000	         -0.15428969	         10.17671743	         -0.01485643	
          3.29000000	          0.05284851	         10.17683023	         -0.09021381	
          3.30000000	          0.27566874	         10.20035461	         -0.11014601	
          3.31000000	          0.51029017	         10.24990942	         -0.07866423	
          3.32000000	          0.75277427	         10.32547335	         -0.00382269	
          3.33000000	          1.00043955	         10.42457857	          0.10271232	
          3.34000000	          1.25225974	         10.54174316	          0.22728030	
          3.35000000	          1.50863877	         10.66791386	          0.35635862	
          3.36000000	          1.77137296	         10.79091511	          0.47808872	
          3.37000000	          2.04428031	         10.89780816	          0.58263129	
          3.38000000	          2.33371425	         10.97862553	          0.66163764	
          3.39000000	          2.64728729	         11.02962563	          0.70747066	
          3.40000000	          2.99006082	         11.05397021	          0.71259359	
          3.41000000	          3.35982698	         11.05907551	          0.66990191	
          3.42000000	          3.74412196	         11.05212727	          0.57467343	
          3.43000000	          4.12033901	         11.03650313	          0.42718787	
          3.44000000	          4.45856608	         11.01115433	          0.23412794	
          3.45000000	          4.72577215	         10.97285564	          0.00798263	
          3.46000000	          4.88983288	         10.91931538	         -0.23502837	
          3.47000000	          4.92232420	         10.85096910	         -0.47760621	
          3.48000000	          4.79975173	         10.77060500	         -0.70387296	
          3.49000000	          4.50362395	         10.68140659	         -0.90141139	
          3.50000000	          4.02022891	         10.58473271	         -1.06282726	
          3.51000000	          3.34078707	         10.47891713	         -1.18652649	
          3.52000000	          2.46236303	         10.35972696	         -1.27602528	
          3.53000000	          1.38930080	         10.22157211	         -1.33682151	
          3.54000000	          0.13356209	         10.06139993	         -1.37033981	
          3.55000000	         -1.28321313	          9.87819832	         -1.37639533	
          3.56000000	         -2.83204993	          9.68211375	         -1.35324793	
          3.57000000	         -4.42833579	          9.47961507	         -1.29289133	
          3.58000000	         -5.93069288	          9.31311694	         -1.26628771	
          3.59000000	         -7.41589150	          9.14690867	         -1.23194316	
          3.60000000	         -8.80225256	          9.01729822	         -1.21106203	
          3.61000000	         -9.97596032	          8.95849544	         -1.22807630	
          3.62000000	        -10.73162500	          8.98311574	         -1.34950152	
          3.63000000	        -11.01163566	          8.96536676	         -1.46114943	
          3.64000000	        -11.63191765	          9.20060922	         -1.04447684	
          3.65000000	        -11.17133640	          9.34776228	         -1.12350273	
          3.66000000	        -10.73251126	          9.58713154	         -1.07331648	
          3.67000000	         -9.95916036	          9.76422722	         -1.07969362	
          3.68000000	         -9.00064526	          9.92333102	         -1.10241596	
          3.69000000	         -7.92140979	         10.05330440	         -1.13947557	
          3.70000000	         -6.76548121	         10.15384680	         -1.20118748	
          3.71000000	         -5.58561306	         10.22820821	         -1.27822133	
          3.72000000	         -4.42554901	         10.28140189	         -1.35964245	
          3.73000000	         -3.31968289	         10.32278703	         -1.43544879	
          3.74000000	         -2.28858901	         10.35578401	         -1.49604092	
          3.75000000	         -1.34772140	         10.38211229	         -1.53303209	
          3.76000000	         -0.50556710	         10.40354232	         -1.54350174	
          3.77000000	          0.23615930	         10.42195396	         -1.53242986	
          3.78000000	          0.88119658	         10.43905944	         -1.51155686	
          3.79000000	          1.43425953	         10.45476957	         -1.49330052	
          3.80000000	          1.89624026	         10.46619485	         -1.48409622	
          3.81000000	          2.26338221	         10.46841033	         -1.48201991	
          3.82000000	          2.53072377	         10.45670544	         -1.47947697	
          3.83000000	          2.69680303	         10.42879479	         -1.46833180	
          3.84000000	          2.76675872	         10.38575317	         -1.44419805	
          3.85000000	          2.75250796	         10.33144377	         -1.40767736	
          3.86000000	          2.67054368	         10.27111617	         -1.36273735	
          3.87000000	          2.53901510	         10.21003488	         -1.31417420	
          3.88000000	          2.37548634	         10.15252299	         -1.26583388	
          3.89000000	          2.19582398	         10.10142797	         -1.22012675	
          3.90000000	          2.01372501	         10.05789063	         -1.17847848	
          3.91000000	          1.84013986	         10.02134331	         -1.14184673	
          3.92000000	          1.68231544	          9.98968294	         -1.11053624	
          3.93000000	          1.54294641	          9.95967566	         -1.08347816	
          3.94000000	          1.42049745	          9.92771252	         -1.05817615	
          3.95000000	          1.31130716	          9.89081419	         -1.03229509	
          3.96000000	          1.21258817	          9.84744360	         -1.00593119	
          3.97000000	          1.12445975	          9.79774901	         -0.98251126	
          3.98000000	          1.04954076	          9.74306565	         -0.96726200	
          3.99000000	          0.99110800	          9.68537162	         -0.96417161	
          4.00000000	          0.95101848	          9.62679729	         -0.97372151	
          4.01000000	          0.92890285	          9.56942614	         -0.99256789	
          4.02000000	          0.92257733	          9.51523615	         -1.01487993	
          4.03000000	          0.92874118	          9.46592188	         -1.03398974	
          4.04000000	          0.94331120	          9.42264713	         -1.04357040	
          4.05000000	          0.96152825	          9.38588977	         -1.03840845	
          4.06000000	          0.97841055	          9.35549110	         -1.01521047	
          4.07000000	          0.98978194	          9.33089100	         -0.97348403	
          4.08000000	          0.99344611	          9.31143223	         -0.91606003	
          4.09000000	          0.98976600	          9.29657308	         -0.84877889	
          4.10000000	          0.98122035	          9.28589672	         -0.77928614	
          4.11000000	          0.97116306	          9.27895315	         -0.71540650	
          4.12000000	          0.96241283	          9.27510205	         -0.66370258	
          4.13000000	          0.95610429	          9.27352072	         -0.62847568	
          4.14000000	          0.95082775	          9.27343515	         -0.61107195	
          4.15000000	          0.94204492	          9.27451829	         -0.60943043	
          4.16000000	          0.92231949	          9.27729593	         -0.61817474	
          4.17000000	          0.88292377	          9.28344227	         -0.62971123	
          4.18000000	          0.81673703	          9.29567103	         -0.63623609	
          4.19000000	          0.72122923	          9.31718564	         -0.63191383	
          4.20000000	          0.59978832	          9.35080337	         -0.61420665	
          4.21000000	          0.46051330	          9.39807771	         -0.58383183	
